<svg xmlns="http://www.w3.org/2000/svg" xmlns:xlink="http://www.w3.org/1999/xlink" width="500" zoomAndPan="magnify" viewBox="0 0 375 374.999991" height="500" preserveAspectRatio="xMidYMid meet" version="1.0"><defs><g/><clipPath id="0f8283c4ee"><path d="M 15.71875 80 L 218.96875 80 L 218.96875 289.296875 L 15.71875 289.296875 Z M 15.71875 80 " clip-rule="nonzero"/></clipPath></defs><g clip-path="url(#0f8283c4ee)"><path fill="#3858d6" d="M 139.699219 274.824219 C 111.773438 287.011719 78.335938 274.210938 66.71875 244.230469 C 59.753906 226.285156 61.25 202.78125 75.003906 185.152344 L 159.425781 185.152344 C 181.722656 212.601562 174.429688 259.683594 139.699219 274.824219 Z M 194.101562 94.101562 L 155.957031 94.101562 L 155.957031 119.964844 C 148.203125 111.9375 127.347656 90.363281 117.40625 80.089844 C 115.488281 82.078125 38.953125 161.25 15.84375 185.152344 L 28.492188 185.152344 C 18.261719 208.65625 18.671875 236.746094 28.085938 259.140625 C 59.714844 334.488281 173.464844 336.105469 206.589844 258.621094 C 216.503906 235.441406 216.054688 207.417969 206.683594 185.152344 L 218.96875 185.152344 L 194.101562 159.425781 L 194.101562 94.101562 " fill-opacity="1" fill-rule="nonzero"/></g><g fill="#3858d6" fill-opacity="1"><g transform="translate(222.460713, 280.260118)"><g><path d="M 71.546875 -55.859375 C 71.546875 -48.535156 73.796875 -42.882812 78.296875 -38.90625 C 82.796875 -34.9375 88.707031 -32.953125 96.03125 -32.953125 C 101.882812 -32.953125 107.742188 -34.101562 113.609375 -36.40625 L 113.609375 0 C 108.378906 1.675781 102.832031 3.085938 96.96875 4.234375 C 91.113281 5.390625 85.257812 5.96875 79.40625 5.96875 C 72.707031 5.96875 66.320312 5.128906 60.25 3.453125 C 54.1875 1.773438 48.75 -1.097656 43.9375 -5.171875 C 39.125 -9.253906 35.304688 -14.695312 32.484375 -21.5 C 29.660156 -28.300781 28.25 -36.722656 28.25 -46.765625 L 28.25 -117.0625 L 5.96875 -117.0625 L 5.96875 -146.25 L 28.25 -155.65625 L 28.25 -190.5 L 71.546875 -190.5 L 71.546875 -155.65625 L 113.609375 -155.65625 L 113.609375 -117.0625 L 71.546875 -117.0625 Z M 71.546875 -55.859375 "/></g></g></g></svg>